<?xml version="1.0" encoding="UTF-8" standalone="no"?>
<svg
   viewBox="0 0 640 640"
   version="1.1"
   id="svg1"
   sodipodi:docname="hourglass-solid-full.svg"
   xml:space="preserve"
   inkscape:version="1.4 (e7c3feb1, 2024-10-09)"
   xmlns:inkscape="http://www.inkscape.org/namespaces/inkscape"
   xmlns:sodipodi="http://sodipodi.sourceforge.net/DTD/sodipodi-0.dtd"
   xmlns="http://www.w3.org/2000/svg"
   xmlns:svg="http://www.w3.org/2000/svg"><defs
     id="defs1" /><sodipodi:namedview
     id="namedview1"
     pagecolor="#ffffff"
     bordercolor="#ffffff"
     borderopacity="0.25"
     inkscape:showpageshadow="2"
     inkscape:pageopacity="0.0"
     inkscape:pagecheckerboard="0"
     inkscape:deskcolor="#d1d1d1"
     inkscape:zoom="0.18261088"
     inkscape:cx="722.8485"
     inkscape:cy="459.9945"
     inkscape:window-width="1712"
     inkscape:window-height="799"
     inkscape:window-x="0"
     inkscape:window-y="40"
     inkscape:window-maximized="0"
     inkscape:current-layer="svg1" /><!--!Font Awesome Free 7.1.0 by @fontawesome - https://fontawesome.com License - https://fontawesome.com/license/free Copyright 2025 Fonticons, Inc.--><path
     d="m 419.82617,374.62695 c -19.67998,9.44371 -42.99589,16.5662 -70.45508,19.94336 l 38.5293,38.5293 C 405.90039,451.09961 416,475.5 416,501 v 11 H 224 v -11 c 0,-15.63977 3.83478,-30.84807 10.92578,-44.4375 l -30.05078,1.88672 c -12.77047,0.80694 -25.07403,-4.16693 -32.11914,-14.2168 -0.52042,-0.74238 -0.91589,-1.56665 -1.35547,-2.36328 C 163.96612,460.51617 160,480.55294 160,501 v 11 c -17.7,0 -32,14.3 -32,32 0,17.7 14.3,32 32,32 h 320 c 17.7,0 32,-14.3 32,-32 0,-17.7 -14.3,-32 -32,-32 v -11 c 0,-42.4 -16.90039,-83.09961 -46.90039,-113.09961 z"
     style="fill: #fff"
     id="path10" /><path
     d="m 160,64 c -17.7,0 -32,14.3 -32,32 0,17.7 14.3,32 32,32 v 11 c 0,35.61271 11.96147,69.9996 33.55469,97.88086 l 15.51953,-7.47852 0.002,-0.002 c 6.97367,-3.35943 14.44276,-5.26909 21.94336,-5.58594 7.5006,-0.31684 15.03131,0.96078 22.125,3.97657 l 34.52149,14.67578 -35.56641,-35.56641 C 234.09961,188.90039 224,164.5 224,139 v -11 h 192 v 11 c 0,25.5 -10.09961,49.90039 -28.09961,67.90039 l -20.10156,20.10156 c 30.75101,-3.67344 58.00006,-0.0609 80.92773,6.92969 C 468.89806,206.59535 480,173.35726 480,139 v -11 c 17.7,0 32,-14.3 32,-32 0,-17.7 -14.3,-32 -32,-32 z"
     style="fill: #fff"
     id="path9" /><path
     d="m 233.6582,240.26562 c -5.88833,-0.0543 -11.95483,1.25777 -17.46484,3.91211 l -11.53906,5.56055 -48.03321,23.14844 c -14.43518,6.97358 -15.59151,23.08455 -2.05859,28.83789 l 56.25195,23.91406 c 19.18523,8.15634 24.754,28.10652 12.41797,44.48828 l -4.39453,5.83594 -31.77539,42.19531 c -8.66665,11.50896 0.73571,24.94047 16.78516,23.92188 l 42.53906,-2.66992 23.88281,-1.5 c 10.92092,-0.68709 21.15462,-5.89352 27.06055,-13.73633 l 33.19922,-44.08594 c 1.38172,-0.0791 2.64394,-0.25789 4.0039,-0.35547 29.08468,-2.0868 53.27011,-8.30163 73.32227,-17.07617 44.59528,-19.51427 69.07834,-51.36435 83.01172,-77.05859 3.45986,-6.30964 1.51926,-13.2623 -4.77344,-17.10157 -13.00713,-7.89662 -29.30645,-15.79166 -48.58008,-21.0332 -24.8879,-6.76836 -54.83162,-8.95807 -89.50195,-0.67383 -13.1873,3.15102 -27.07206,7.89921 -41.59961,14.42383 -2.68376,1.20533 -5.32407,2.28926 -8.05274,3.62305 l -51.63085,-21.95117 c -4.01844,-1.70839 -8.4905,-2.57691 -13.07032,-2.61915 z m 159.54297,38.0625 c 3.91232,0.14344 7.76905,0.89792 11.34961,2.32032 0.22532,0.0895 0.47029,0.12586 0.69336,0.2207 14.4025,6.12302 18.57518,21.06732 9.31445,33.36523 -9.26076,12.29793 -28.46078,17.30858 -42.86328,11.18555 -0.87009,-0.36991 -1.58029,-0.86705 -2.375,-1.29883 -12.35995,-6.71534 -15.63879,-20.5134 -6.9375,-32.06836 6.83797,-9.08056 19.08142,-14.15492 30.81836,-13.72461 z"
     style="fill: #fff;baseline-shift:baseline;display:inline;overflow:visible;vector-effect:none;paint-order:stroke fill markers;enable-background:accumulate;stop-color:#FFF;stop-opacity:1"
     id="path7" /><path
     d="m 176.53711,335.29862 c -21.64638,-1.29613 -39.95244,22.74018 -50.30273,35.39063 17.00748,7.562 53.86778,26.37041 72.35156,-2.66602 4.60512,-9.17414 1.74681,-21.07559 -6.58594,-27.32812 -5.29462,-3.44828 -10.46757,-5.09738 -15.46289,-5.39649 z"
     style="stroke: #fff; fill: #fff; stroke-width:6.01919;paint-order:stroke markers fill"
     id="path8" /></svg>
